<svg width="38" height="39" viewBox="0 0 38 39" fill="none" xmlns="http://www.w3.org/2000/svg">
<g clip-path="url(#clip0_203_583)">
<path d="M38 19.6478C38 18.3271 37.8953 16.9993 37.6721 15.7H19.76V23.1816H30.0174C29.5917 25.5946 27.8426 28.0236 25.84 29.38L26.2215 33.94L31.92 33.94C35.5136 30.5561 38 25.5589 38 19.6478Z" fill="#4285F4"/>
<path d="M19.2971 38.5C24.4331 38.5 28.7643 36.8349 31.92 33.9607L25.84 29.38C24.1327 30.5269 21.8721 31.0589 19.3041 31.0589C14.3361 31.0589 9.87142 27.7494 8.36003 23.3H2.28003V28.1433C5.51272 34.4927 12.0971 38.5 19.2971 38.5Z" fill="#34A853"/>
<path d="M8.36002 23.3C7.4889 20.9877 7.8689 18.0124 8.74002 15.7L9.12002 11.14L2.28 10.76C-0.669577 16.0209 -0.737373 22.5991 2.2122 27.86L8.36002 23.3Z" fill="#FBBC04"/>
<path d="M19.6637 7.93836C22.4371 7.89692 25.1176 8.90511 27.1261 10.7558L32.68 5.39027C29.1633 2.19999 24.4957 0.446023 19.6637 0.501266C12.3085 0.501266 5.58236 4.40705 2.28003 10.76L8.74173 15.7C10.2785 11.246 14.5887 7.93836 19.6637 7.93836Z" fill="#EA4335"/>
</g>
<defs>
<clipPath id="clip0_203_583">
<rect width="38" height="38" fill="white" transform="translate(0 0.5)"/>
</clipPath>
</defs>
</svg>
