<svg width="18" height="23" viewBox="0 0 18 23" fill="none" xmlns="http://www.w3.org/2000/svg">
<path d="M16 15.9368V10.4786C15.5 10.5836 15 10.6885 14.5 10.6885H14V16.9865H4V9.63886C4 6.69981 6.2 4.39055 9 4.39055C9.1 3.02599 9.7 1.87136 10.5 0.926659C10.2 0.506794 9.6 0.191895 9 0.191895C7.9 0.191895 7 1.13659 7 2.29122V2.60612C4 3.55082 2 6.38491 2 9.63886V15.9368L0 18.0362V19.0858H18V18.0362L16 15.9368ZM7 20.1355C7 21.2901 7.9 22.2348 9 22.2348C10.1 22.2348 11 21.2901 11 20.1355H7ZM18 4.91538C18 6.90974 16.4 8.5892 14.5 8.5892C12.6 8.5892 11 6.90974 11 4.91538C11 2.92102 12.6 1.24156 14.5 1.24156C16.4 1.24156 18 2.92102 18 4.91538Z" fill="white"/>
<ellipse cx="14.5" cy="4.9154" rx="3.5" ry="3.67382" fill="#F9A007"/>
</svg>
