<svg width="15" height="15" viewBox="0 0 15 15" fill="none" xmlns="http://www.w3.org/2000/svg">
<path d="M1.25 3.29375L2.05 2.5L12.5 12.95L11.7062 13.75L9.78125 11.825C9.0625 12.0625 8.3 12.1875 7.5 12.1875C4.375 12.1875 1.70625 10.2438 0.625 7.5C1.05625 6.4 1.74375 5.43125 2.61875 4.6625L1.25 3.29375ZM7.5 5.625C7.99728 5.625 8.47419 5.82254 8.82583 6.17417C9.17746 6.52581 9.375 7.00272 9.375 7.5C9.37532 7.71285 9.33939 7.92421 9.26875 8.125L6.875 5.73125C7.07579 5.66061 7.28715 5.62468 7.5 5.625ZM7.5 2.8125C10.625 2.8125 13.2937 4.75625 14.375 7.5C13.8649 8.79575 12.9981 9.92045 11.875 10.7438L10.9875 9.85C11.8518 9.25211 12.5489 8.44316 13.0125 7.5C12.5072 6.46871 11.7228 5.59986 10.7483 4.99219C9.77382 4.38453 8.64842 4.06242 7.5 4.0625C6.81875 4.0625 6.15 4.175 5.525 4.375L4.5625 3.41875C5.4625 3.03125 6.45625 2.8125 7.5 2.8125ZM1.9875 7.5C2.49277 8.53129 3.27723 9.40014 4.25171 10.0078C5.22618 10.6155 6.35158 10.9376 7.5 10.9375C7.93125 10.9375 8.35625 10.8938 8.75 10.8063L7.325 9.375C6.8901 9.32838 6.48427 9.1343 6.17498 8.82502C5.8657 8.51573 5.67162 8.1099 5.625 7.675L3.5 5.54375C2.88125 6.075 2.3625 6.7375 1.9875 7.5Z" fill="black"/>
</svg>
