<svg width="16" height="21" viewBox="0 0 16 21" fill="none" xmlns="http://www.w3.org/2000/svg">
<path d="M15.4892 12.1047L15.489 12.1057C15.4687 12.2006 15.4211 12.2875 15.3519 12.3555C15.2828 12.4235 15.1951 12.4697 15.0999 12.4883L15.0979 12.4887L9.00891 13.7067L8.30317 13.8479L8.68174 14.46L11.7757 19.4627L10.9252 19.9888L7.81122 14.954L7.44261 14.358L6.99895 14.9004L3.38703 19.3163C3.32489 19.3923 3.24177 19.4483 3.14804 19.4773C3.05431 19.5063 2.95411 19.5072 2.85992 19.4797C2.76573 19.4521 2.68171 19.3975 2.61834 19.3226C2.55498 19.2477 2.51505 19.1558 2.50353 19.0584C2.50353 19.0584 2.50353 19.0584 2.50353 19.0583L0.503556 2.05858L0.503558 2.05858L0.503365 2.05698C0.49173 1.96076 0.50837 1.86323 0.551251 1.77631C0.594133 1.68939 0.6614 1.61683 0.744836 1.56751C0.828273 1.51819 0.924266 1.49424 1.02109 1.49858C1.11792 1.50292 1.21138 1.53536 1.29008 1.59194L1.29007 1.59195L1.29136 1.59286L15.2912 11.5927C15.3705 11.6495 15.4316 11.7282 15.4667 11.8191C15.5019 11.9101 15.5097 12.0094 15.4892 12.1047ZM7.40178 13.0103L7.40211 13.0103L12.6381 11.9623L13.7696 11.7358L12.8306 11.0651L2.5476 3.72013L1.62841 3.06356L1.76041 4.18542L3.22141 16.6024L3.35907 17.7724L4.10498 16.8606L7.11278 13.1838C7.18612 13.0943 7.28826 13.033 7.40178 13.0103Z" fill="black" stroke="white"/>
</svg>
