<svg width="16" height="22" viewBox="0 0 16 22" fill="none" xmlns="http://www.w3.org/2000/svg">
<path d="M10.9289 20.937L7.817 15.6557L7.44375 15.0223L6.99183 15.6022L3.3799 20.2375C3.37987 20.2375 3.37985 20.2375 3.37983 20.2376C3.31523 20.3204 3.23164 20.378 3.14163 20.4073C3.05186 20.4365 2.95661 20.4373 2.86654 20.4097C2.77621 20.382 2.69189 20.3259 2.62616 20.2443C2.56023 20.1625 2.5167 20.0594 2.50409 19.9474L0.504113 2.10329L0.504115 2.10329L0.50394 2.10177C0.491187 1.99106 0.509642 1.87965 0.555606 1.78185C0.60149 1.68423 0.671672 1.60652 0.754265 1.55527C0.836544 1.50422 0.928817 1.4807 1.02023 1.485C1.11168 1.4893 1.20236 1.52147 1.281 1.58083L1.281 1.58083L1.28229 1.5818L15.2821 12.0783C15.2821 12.0783 15.2821 12.0783 15.2822 12.0783C15.2822 12.0784 15.2822 12.0784 15.2823 12.0784C15.3618 12.1381 15.4262 12.2235 15.4641 12.3265C15.5022 12.4297 15.5109 12.5434 15.4884 12.6528L15.4882 12.6537C15.4661 12.7625 15.4147 12.8589 15.3436 12.9322C15.2728 13.0053 15.1861 13.0521 15.0956 13.0707L15.0935 13.0711L9.00448 14.3496L8.3229 14.4927L8.67644 15.0927L11.7904 20.3778L10.9289 20.937ZM7.30422 13.0786L7.40703 13.568L12.643 12.4679L13.7236 12.2409L12.8402 11.5785L2.55716 3.86876L1.63145 3.1747L1.76034 4.32451L3.22134 17.3582L3.35807 18.578L4.1126 17.6098L7.1204 13.7505C7.19661 13.6528 7.29881 13.5906 7.40668 13.568L7.30422 13.0786ZM3.71822 17.3025L4.21511 17.2468L4.15809 16.7381L3.71822 17.3025Z" fill="black" stroke="white"/>
</svg>
