<svg width="16" height="21" viewBox="0 0 16 21" fill="none" xmlns="http://www.w3.org/2000/svg">
<path d="M15.4894 12.1047L15.4892 12.1057C15.469 12.2006 15.4213 12.2875 15.3522 12.3555C15.283 12.4235 15.1954 12.4697 15.1002 12.4883L15.0981 12.4887L9.00915 13.7067L8.30341 13.8479L8.68198 14.46L11.776 19.4627L10.9255 19.9888L7.81146 14.954L7.44286 14.358L6.9992 14.9004L3.38727 19.3163C3.32513 19.3923 3.24202 19.4483 3.14829 19.4773C3.05456 19.5063 2.95436 19.5072 2.86017 19.4797C2.76597 19.4521 2.68196 19.3975 2.61859 19.3226C2.55522 19.2477 2.5153 19.1558 2.50378 19.0584C2.50378 19.0584 2.50377 19.0584 2.50377 19.0583L0.5038 2.05858L0.503802 2.05858L0.503609 2.05698C0.491974 1.96076 0.508614 1.86323 0.551495 1.77631C0.594377 1.68939 0.661644 1.61683 0.745081 1.56751C0.828517 1.51819 0.92451 1.49424 1.02134 1.49858C1.11816 1.50292 1.21163 1.53536 1.29032 1.59194L1.29032 1.59195L1.2916 1.59286L15.2914 11.5927C15.3708 11.6495 15.4318 11.7282 15.467 11.8191C15.5022 11.9101 15.51 12.0094 15.4894 12.1047ZM7.40202 13.0103L7.40235 13.0103L12.6384 11.9623L13.7698 11.7358L12.8308 11.0651L2.54784 3.72013L1.62865 3.06356L1.76065 4.18542L3.22165 16.6024L3.35931 17.7724L4.10523 16.8606L7.11302 13.1838C7.18637 13.0943 7.28851 13.033 7.40202 13.0103Z" fill="black" stroke="white"/>
</svg>
